<svg width="28" height="25" viewBox="0 0 28 25" fill="none" xmlns="http://www.w3.org/2000/svg">
<path d="M9.6347 2.8021V18.5513M18.3653 5.97618V22.1858M2 7.3815V19.1692C2 21.471 3.64384 22.416 5.64079 21.2772L8.50228 19.6538C9.12329 19.3025 10.1583 19.2661 10.8037 19.5932L17.1963 22.7794C17.8417 23.0944 18.8767 23.0702 19.4977 22.7188L24.7702 19.7144C25.4399 19.3267 26 18.3817 26 17.6064V5.81869C26 3.51688 24.3562 2.57192 22.3592 3.71071L19.4977 5.3341C18.8767 5.68543 17.8417 5.72177 17.1963 5.39467L10.8037 2.22059C10.1583 1.90561 9.12329 1.92984 8.50228 2.28117L3.22983 5.28564C2.54795 5.67331 2 6.61827 2 7.3815Z" stroke="#E6E7E8" stroke-width="2.5" stroke-linecap="round" stroke-linejoin="round"/>
</svg>
