<svg width="28" height="30" viewBox="0 0 28 30" fill="none" xmlns="http://www.w3.org/2000/svg">
<path d="M26 23.229C26 23.697 25.9039 24.178 25.6995 24.646C25.4952 25.114 25.2308 25.556 24.8823 25.972C24.2934 26.674 23.6445 27.181 22.9114 27.506C22.1903 27.831 21.4091 28 20.5679 28C19.342 28 18.032 27.688 16.65 27.051C15.2679 26.414 13.8858 25.556 12.5158 24.477C11.1194 23.3721 9.80173 22.1554 8.57386 20.837C7.35856 19.5136 6.23768 18.0925 5.22083 16.586C4.23535 15.104 3.44216 13.622 2.8653 12.153C2.28843 10.671 2 9.254 2 7.902C2 7.018 2.14422 6.173 2.43265 5.393C2.72108 4.6 3.17777 3.872 3.81472 3.222C4.58388 2.403 5.42514 2 6.31447 2C6.65098 2 6.98748 2.078 7.28793 2.234C7.6004 2.39 7.87682 2.624 8.09314 2.962L10.8813 7.213C11.0976 7.538 11.2539 7.837 11.362 8.123C11.4702 8.396 11.5303 8.669 11.5303 8.916C11.5303 9.228 11.4462 9.54 11.2779 9.839C11.1217 10.138 10.8933 10.45 10.6049 10.762L9.69154 11.789C9.55934 11.932 9.49925 12.101 9.49925 12.309C9.49925 12.413 9.51127 12.504 9.5353 12.608C9.57136 12.712 9.60741 12.79 9.63145 12.868C9.84777 13.297 10.2203 13.856 10.7491 14.532C11.2899 15.208 11.8668 15.897 12.4917 16.586C13.1407 17.275 13.7656 17.912 14.4026 18.497C15.0275 19.069 15.5443 19.459 15.9529 19.693C16.013 19.719 16.0851 19.758 16.1693 19.797C16.2654 19.836 16.3615 19.849 16.4697 19.849C16.674 19.849 16.8302 19.771 16.9624 19.628L17.8758 18.653C18.1763 18.328 18.4647 18.081 18.7411 17.925C19.0175 17.743 19.2939 17.652 19.5944 17.652C19.8227 17.652 20.0631 17.704 20.3275 17.821C20.5919 17.938 20.8683 18.107 21.1688 18.328L25.1467 21.383C25.4592 21.617 25.6755 21.89 25.8077 22.215C25.9279 22.54 26 22.865 26 23.229Z" stroke="#E6E7E8" stroke-width="2.5" stroke-miterlimit="10"/>
</svg>
