<svg width="29" height="32" viewBox="0 0 29 32" fill="none" xmlns="http://www.w3.org/2000/svg">
<path d="M24.2222 16V7.6C24.2222 4.506 24.2222 2 18.6667 2H10.3333C4.77778 2 4.77778 4.506 4.77778 7.6V16M7.55556 16C2 16 2 18.506 2 21.6V23C2 26.864 2 30 8.94444 30H20.0556C25.6111 30 27 26.864 27 23V21.6C27 18.506 27 16 21.4444 16C20.0556 16 19.6667 16.294 18.9444 16.84L17.5278 18.352C17.1383 18.7696 16.6681 19.1024 16.1462 19.3299C15.6243 19.5574 15.0617 19.6747 14.4931 19.6747C13.9244 19.6747 13.3618 19.5574 12.8399 19.3299C12.318 19.1024 11.8478 18.7696 11.4583 18.352L10.0556 16.84C9.33333 16.294 8.94444 16 7.55556 16Z" stroke="#212226" stroke-width="2.5" stroke-miterlimit="10" stroke-linecap="round" stroke-linejoin="round"/>
</svg>
